# xmcd
#
# Track frame offsets:
#	150
#	21565
#	36035
#	56077
#	77605
#	95757
#	117107
#	131377
#	147812
#	165245
#	179905
#	198480
#	216485
#
# Disc length: 3401 seconds
#
# Revision: 0
# Processed by: cddbd v1.4PL0 Copyright (c) Steve Scherf et al.
# Submitted via: dBpowerAMP V4.0
#
DISCID=bc0d470d
DTITLE=Ronny Cox - Cowboy Savant
DYEAR=2002
DGENRE=Folk
TTITLE0=Always in the Wind (Hozh'q)
TTITLE1=Sanctuary
TTITLE2=Sliver City
TTITLE3=Quintanaroo
TTITLE4=Comin' Back to You
TTITLE5=Through Your Eyes
TTITLE6=Done Movin'
TTITLE7=Canyons
TTITLE8=The Connection
TTITLE9=Trash Meets the Cash
TTITLE10=Back Then
TTITLE11=Corn, Water, and Wood
TTITLE12=From the Dust
EXTD=
EXTT0=
EXTT1=
EXTT2=
EXTT3=
EXTT4=
EXTT5=
EXTT6=
EXTT7=
EXTT8=
EXTT9=
EXTT10=
EXTT11=
EXTT12=
PLAYORDER=
